# xmcd
#
# Track frame offsets:
#	150
#	11088
#	21690
#	33967
#	44944
#	55113
#	65382
#	75441
#	87769
#	98816
#	111256
#	120915
#	134134
#	145491
#	157975
#	169291
#	179514
#	190278
#	201564
#	212933
#	223836
#	237688
#	247377
#	259791
#	271535
#	282411
#	293674
#	306407
#	317710
#	328917
#
# Disc length: 4523 seconds
#
# Revision: 1
# Processed by: cddbd v1.5.2PL0 Copyright (c) Steve Scherf et al.
# Submitted via: audiograbber 1.83.01
#
DISCID=e311a91e
DTITLE=Hank Thompson - The Quintessential 1949-79
DYEAR=1949
DGENRE=Country
TTITLE0=Humpty Dumpty Heart
TTITLE1=Whoa Sailor
TTITLE2=Wild Side Of Life
TTITLE3=Waiting In The Lobby Of Your Heart
TTITLE4=Rub A Dub Dub
TTITLE5=Wake Up Irene
TTITLE6=A Fooler, A Faker
TTITLE7=Breakin' The Rules
TTITLE8=Honky-Tonk Girl
TTITLE9=We've Gone Too Far
TTITLE10=The New Green Light
TTITLE11=Wildwood Flower
TTITLE12=Breakin' In Another Heart
TTITLE13=Most Of All
TTITLE14=Don't Take It Out On Me
TTITLE15=The Blackboard Of My Heart
TTITLE16=Rockin' In The Congo
TTITLE17=Squaws Along The Yukon
TTITLE18=I've Run Out of Tomorrows
TTITLE19=Anybody's Girl
TTITLE20=Cocaine Blues
TTITLE21=A Six Pack To Go
TTITLE22=Oklahoma Hills
TTITLE23=Hangover Tavern
TTITLE24=On Tap, In The Can, Or In The Bottle
TTITLE25=Smoky The Bar
TTITLE26=I've Come Aweful Close
TTITLE27=The Older The Violin, The Sweeter The Music
TTITLE28=Who Left The Door To Heaven Open
TTITLE29=I Hear The South Calling Me
EXTD=
EXTT0=
EXTT1=
EXTT2=
EXTT3=
EXTT4=
EXTT5=
EXTT6=
EXTT7=
EXTT8=
EXTT9=
EXTT10=
EXTT11=
EXTT12=
EXTT13=
EXTT14=
EXTT15=
EXTT16=
EXTT17=
EXTT18=
EXTT19=
EXTT20=
EXTT21=
EXTT22=
EXTT23=
EXTT24=
EXTT25=
EXTT26=
EXTT27=
EXTT28=
EXTT29=
PLAYORDER=
